<?xml version="1.0" standalone="no"?>
 <!DOCTYPE svg PUBLIC "-//W3C//DTD SVG 1.1//EN" 
 "http://www.w3.org/Graphics/SVG/1.1/DTD/svg11.dtd"> 
<svg xmlns="http://www.w3.org/2000/svg" version="1.1" 
    width="29.7002cm" height="21.0007cm" viewBox="0 0 116930 82680 ">
<title>SVG Picture created as ESP-Breakout.pms-F_Cu.svg date 2015/04/15 00:04:06 </title>
  <desc>Picture generated by PCBNEW </desc>
<g style="fill:#000000; fill-opacity:1;stroke:#000000; stroke-opacity:1;
stroke-linecap:round; stroke-linejoin:round; "
 transform="translate(0 0) scale(1 1)">
</g>
<g style="fill:#000000; fill-opacity:0.0; 
stroke:#000000; stroke-width:39.3701; stroke-opacity:1; 
stroke-linecap:round; stroke-linejoin:round;">
</g>
<g style="fill:#000000; fill-opacity:0.0; 
stroke:#000000; stroke-width:59.0551; stroke-opacity:1; 
stroke-linecap:round; stroke-linejoin:round;">
<rect x="69685.9" y="65357.2" width="42519.7" height="12598.4" rx="0" />
</g>
<g style="fill:#000000; fill-opacity:0.0; 
stroke:#000000; stroke-width:39.3701; stroke-opacity:1; 
stroke-linecap:round; stroke-linejoin:round;">
</g>
<g style="fill:#000000; fill-opacity:0.0; 
stroke:#000000; stroke-width:59.0551; stroke-opacity:1; 
stroke-linecap:round; stroke-linejoin:round;">
<rect x="3937.01" y="3937.01" width="109056" height="74806" rx="0" />
</g>
<g style="fill:#000000; fill-opacity:0.0; 
stroke:#000000; stroke-width:39.3701; stroke-opacity:1; 
stroke-linecap:round; stroke-linejoin:round;">
</g>
<g style="fill:#000000; fill-opacity:0.0; 
stroke:#000000; stroke-width:59.0551; stroke-opacity:1; 
stroke-linecap:round; stroke-linejoin:round;">
<rect x="4724.41" y="4724.41" width="107481" height="73231.2" rx="0" />
</g>
<g style="fill:#000000; fill-opacity:0.0; 
stroke:#000000; stroke-width:39.3701; stroke-opacity:1; 
stroke-linecap:round; stroke-linejoin:round;">
</g>
<g style="fill:#000000; fill-opacity:0.0; 
stroke:#000000; stroke-width:59.0551; stroke-opacity:1; 
stroke-linecap:round; stroke-linejoin:round;">
<path d="M23622 4724
L23622 3937
" />
</g>
<g style="fill:#000000; fill-opacity:0.0; 
stroke:#000000; stroke-width:39.3701; stroke-opacity:1; 
stroke-linecap:round; stroke-linejoin:round;">
</g>
<g style="fill:#000000; fill-opacity:0.0; 
stroke:#000000; stroke-width:59.0551; stroke-opacity:1; 
stroke-linecap:round; stroke-linejoin:round;">
<path d="M43307 4724
L43307 3937
" />
</g>
<g style="fill:#000000; fill-opacity:0.0; 
stroke:#000000; stroke-width:39.3701; stroke-opacity:1; 
stroke-linecap:round; stroke-linejoin:round;">
</g>
<g style="fill:#000000; fill-opacity:0.0; 
stroke:#000000; stroke-width:59.0551; stroke-opacity:1; 
stroke-linecap:round; stroke-linejoin:round;">
<path d="M62992 4724
L62992 3937
" />
</g>
<g style="fill:#000000; fill-opacity:0.0; 
stroke:#000000; stroke-width:39.3701; stroke-opacity:1; 
stroke-linecap:round; stroke-linejoin:round;">
</g>
<g style="fill:#000000; fill-opacity:0.0; 
stroke:#000000; stroke-width:59.0551; stroke-opacity:1; 
stroke-linecap:round; stroke-linejoin:round;">
<path d="M82677 4724
L82677 3937
" />
</g>
<g style="fill:#000000; fill-opacity:0.0; 
stroke:#000000; stroke-width:39.3701; stroke-opacity:1; 
stroke-linecap:round; stroke-linejoin:round;">
</g>
<g style="fill:#000000; fill-opacity:0.0; 
stroke:#000000; stroke-width:59.0551; stroke-opacity:1; 
stroke-linecap:round; stroke-linejoin:round;">
<path d="M102362 4724
L102362 3937
" />
</g>
<g style="fill:#000000; fill-opacity:0.0; 
stroke:#000000; stroke-width:39.3701; stroke-opacity:1; 
stroke-linecap:round; stroke-linejoin:round;">
</g>
<g style="fill:#000000; fill-opacity:0.0; 
stroke:#000000; stroke-width:59.0551; stroke-opacity:1; 
stroke-linecap:round; stroke-linejoin:round;">
<path d="M14169 4562
L13877 4562
" />
<path d="M14023 4562
L14023 4050
L13974 4123
L13925 4172
L13877 4196
" />
</g>
<g style="fill:#000000; fill-opacity:0.0; 
stroke:#000000; stroke-width:39.3701; stroke-opacity:1; 
stroke-linecap:round; stroke-linejoin:round;">
</g>
<g style="fill:#000000; fill-opacity:0.0; 
stroke:#000000; stroke-width:59.0551; stroke-opacity:1; 
stroke-linecap:round; stroke-linejoin:round;">
<path d="M33562 4099
L33586 4074
L33635 4050
L33757 4050
L33805 4074
L33830 4099
L33854 4147
L33854 4196
L33830 4269
L33537 4562
L33854 4562
" />
</g>
<g style="fill:#000000; fill-opacity:0.0; 
stroke:#000000; stroke-width:39.3701; stroke-opacity:1; 
stroke-linecap:round; stroke-linejoin:round;">
</g>
<g style="fill:#000000; fill-opacity:0.0; 
stroke:#000000; stroke-width:59.0551; stroke-opacity:1; 
stroke-linecap:round; stroke-linejoin:round;">
<path d="M53222 4050
L53539 4050
L53368 4245
L53442 4245
L53490 4269
L53515 4294
L53539 4342
L53539 4464
L53515 4513
L53490 4537
L53442 4562
L53295 4562
L53247 4537
L53222 4513
" />
</g>
<g style="fill:#000000; fill-opacity:0.0; 
stroke:#000000; stroke-width:39.3701; stroke-opacity:1; 
stroke-linecap:round; stroke-linejoin:round;">
</g>
<g style="fill:#000000; fill-opacity:0.0; 
stroke:#000000; stroke-width:59.0551; stroke-opacity:1; 
stroke-linecap:round; stroke-linejoin:round;">
<path d="M73175 4221
L73175 4562
" />
<path d="M73053 4026
L72932 4391
L73248 4391
" />
</g>
<g style="fill:#000000; fill-opacity:0.0; 
stroke:#000000; stroke-width:39.3701; stroke-opacity:1; 
stroke-linecap:round; stroke-linejoin:round;">
</g>
<g style="fill:#000000; fill-opacity:0.0; 
stroke:#000000; stroke-width:59.0551; stroke-opacity:1; 
stroke-linecap:round; stroke-linejoin:round;">
<path d="M92885 4050
L92641 4050
L92617 4294
L92641 4269
L92690 4245
L92812 4245
L92860 4269
L92885 4294
L92909 4342
L92909 4464
L92885 4513
L92860 4537
L92812 4562
L92690 4562
L92641 4537
L92617 4513
" />
</g>
<g style="fill:#000000; fill-opacity:0.0; 
stroke:#000000; stroke-width:39.3701; stroke-opacity:1; 
stroke-linecap:round; stroke-linejoin:round;">
</g>
<g style="fill:#000000; fill-opacity:0.0; 
stroke:#000000; stroke-width:59.0551; stroke-opacity:1; 
stroke-linecap:round; stroke-linejoin:round;">
<path d="M112545 4050
L112448 4050
L112399 4074
L112375 4099
L112326 4172
L112302 4269
L112302 4464
L112326 4513
L112350 4537
L112399 4562
L112497 4562
L112545 4537
L112570 4513
L112594 4464
L112594 4342
L112570 4294
L112545 4269
L112497 4245
L112399 4245
L112350 4269
L112326 4294
L112302 4342
" />
</g>
<g style="fill:#000000; fill-opacity:0.0; 
stroke:#000000; stroke-width:39.3701; stroke-opacity:1; 
stroke-linecap:round; stroke-linejoin:round;">
</g>
<g style="fill:#000000; fill-opacity:0.0; 
stroke:#000000; stroke-width:59.0551; stroke-opacity:1; 
stroke-linecap:round; stroke-linejoin:round;">
<path d="M23622 77955
L23622 78742
" />
</g>
<g style="fill:#000000; fill-opacity:0.0; 
stroke:#000000; stroke-width:39.3701; stroke-opacity:1; 
stroke-linecap:round; stroke-linejoin:round;">
</g>
<g style="fill:#000000; fill-opacity:0.0; 
stroke:#000000; stroke-width:59.0551; stroke-opacity:1; 
stroke-linecap:round; stroke-linejoin:round;">
<path d="M43307 77955
L43307 78742
" />
</g>
<g style="fill:#000000; fill-opacity:0.0; 
stroke:#000000; stroke-width:39.3701; stroke-opacity:1; 
stroke-linecap:round; stroke-linejoin:round;">
</g>
<g style="fill:#000000; fill-opacity:0.0; 
stroke:#000000; stroke-width:59.0551; stroke-opacity:1; 
stroke-linecap:round; stroke-linejoin:round;">
<path d="M62992 77955
L62992 78742
" />
</g>
<g style="fill:#000000; fill-opacity:0.0; 
stroke:#000000; stroke-width:39.3701; stroke-opacity:1; 
stroke-linecap:round; stroke-linejoin:round;">
</g>
<g style="fill:#000000; fill-opacity:0.0; 
stroke:#000000; stroke-width:59.0551; stroke-opacity:1; 
stroke-linecap:round; stroke-linejoin:round;">
<path d="M82677 77955
L82677 78742
" />
</g>
<g style="fill:#000000; fill-opacity:0.0; 
stroke:#000000; stroke-width:39.3701; stroke-opacity:1; 
stroke-linecap:round; stroke-linejoin:round;">
</g>
<g style="fill:#000000; fill-opacity:0.0; 
stroke:#000000; stroke-width:59.0551; stroke-opacity:1; 
stroke-linecap:round; stroke-linejoin:round;">
<path d="M102362 77955
L102362 78742
" />
</g>
<g style="fill:#000000; fill-opacity:0.0; 
stroke:#000000; stroke-width:39.3701; stroke-opacity:1; 
stroke-linecap:round; stroke-linejoin:round;">
</g>
<g style="fill:#000000; fill-opacity:0.0; 
stroke:#000000; stroke-width:59.0551; stroke-opacity:1; 
stroke-linecap:round; stroke-linejoin:round;">
<path d="M14169 78580
L13877 78580
" />
<path d="M14023 78580
L14023 78069
L13974 78142
L13925 78190
L13877 78215
" />
</g>
<g style="fill:#000000; fill-opacity:0.0; 
stroke:#000000; stroke-width:39.3701; stroke-opacity:1; 
stroke-linecap:round; stroke-linejoin:round;">
</g>
<g style="fill:#000000; fill-opacity:0.0; 
stroke:#000000; stroke-width:59.0551; stroke-opacity:1; 
stroke-linecap:round; stroke-linejoin:round;">
<path d="M33562 78117
L33586 78093
L33635 78069
L33757 78069
L33805 78093
L33830 78117
L33854 78166
L33854 78215
L33830 78288
L33537 78580
L33854 78580
" />
</g>
<g style="fill:#000000; fill-opacity:0.0; 
stroke:#000000; stroke-width:39.3701; stroke-opacity:1; 
stroke-linecap:round; stroke-linejoin:round;">
</g>
<g style="fill:#000000; fill-opacity:0.0; 
stroke:#000000; stroke-width:59.0551; stroke-opacity:1; 
stroke-linecap:round; stroke-linejoin:round;">
<path d="M53222 78069
L53539 78069
L53368 78263
L53442 78263
L53490 78288
L53515 78312
L53539 78361
L53539 78483
L53515 78532
L53490 78556
L53442 78580
L53295 78580
L53247 78556
L53222 78532
" />
</g>
<g style="fill:#000000; fill-opacity:0.0; 
stroke:#000000; stroke-width:39.3701; stroke-opacity:1; 
stroke-linecap:round; stroke-linejoin:round;">
</g>
<g style="fill:#000000; fill-opacity:0.0; 
stroke:#000000; stroke-width:59.0551; stroke-opacity:1; 
stroke-linecap:round; stroke-linejoin:round;">
<path d="M73175 78239
L73175 78580
" />
<path d="M73053 78044
L72932 78410
L73248 78410
" />
</g>
<g style="fill:#000000; fill-opacity:0.0; 
stroke:#000000; stroke-width:39.3701; stroke-opacity:1; 
stroke-linecap:round; stroke-linejoin:round;">
</g>
<g style="fill:#000000; fill-opacity:0.0; 
stroke:#000000; stroke-width:59.0551; stroke-opacity:1; 
stroke-linecap:round; stroke-linejoin:round;">
<path d="M92885 78069
L92641 78069
L92617 78312
L92641 78288
L92690 78263
L92812 78263
L92860 78288
L92885 78312
L92909 78361
L92909 78483
L92885 78532
L92860 78556
L92812 78580
L92690 78580
L92641 78556
L92617 78532
" />
</g>
<g style="fill:#000000; fill-opacity:0.0; 
stroke:#000000; stroke-width:39.3701; stroke-opacity:1; 
stroke-linecap:round; stroke-linejoin:round;">
</g>
<g style="fill:#000000; fill-opacity:0.0; 
stroke:#000000; stroke-width:59.0551; stroke-opacity:1; 
stroke-linecap:round; stroke-linejoin:round;">
<path d="M112545 78069
L112448 78069
L112399 78093
L112375 78117
L112326 78190
L112302 78288
L112302 78483
L112326 78532
L112350 78556
L112399 78580
L112497 78580
L112545 78556
L112570 78532
L112594 78483
L112594 78361
L112570 78312
L112545 78288
L112497 78263
L112399 78263
L112350 78288
L112326 78312
L112302 78361
" />
</g>
<g style="fill:#000000; fill-opacity:0.0; 
stroke:#000000; stroke-width:39.3701; stroke-opacity:1; 
stroke-linecap:round; stroke-linejoin:round;">
</g>
<g style="fill:#000000; fill-opacity:0.0; 
stroke:#000000; stroke-width:59.0551; stroke-opacity:1; 
stroke-linecap:round; stroke-linejoin:round;">
<path d="M3937 23622
L4724 23622
" />
</g>
<g style="fill:#000000; fill-opacity:0.0; 
stroke:#000000; stroke-width:39.3701; stroke-opacity:1; 
stroke-linecap:round; stroke-linejoin:round;">
</g>
<g style="fill:#000000; fill-opacity:0.0; 
stroke:#000000; stroke-width:59.0551; stroke-opacity:1; 
stroke-linecap:round; stroke-linejoin:round;">
<path d="M3937 43307
L4724 43307
" />
</g>
<g style="fill:#000000; fill-opacity:0.0; 
stroke:#000000; stroke-width:39.3701; stroke-opacity:1; 
stroke-linecap:round; stroke-linejoin:round;">
</g>
<g style="fill:#000000; fill-opacity:0.0; 
stroke:#000000; stroke-width:59.0551; stroke-opacity:1; 
stroke-linecap:round; stroke-linejoin:round;">
<path d="M3937 62992
L4724 62992
" />
</g>
<g style="fill:#000000; fill-opacity:0.0; 
stroke:#000000; stroke-width:39.3701; stroke-opacity:1; 
stroke-linecap:round; stroke-linejoin:round;">
</g>
<g style="fill:#000000; fill-opacity:0.0; 
stroke:#000000; stroke-width:59.0551; stroke-opacity:1; 
stroke-linecap:round; stroke-linejoin:round;">
<path d="M4208 13864
L4452 13864
" />
<path d="M4160 14011
L4330 13499
L4501 14011
" />
</g>
<g style="fill:#000000; fill-opacity:0.0; 
stroke:#000000; stroke-width:39.3701; stroke-opacity:1; 
stroke-linecap:round; stroke-linejoin:round;">
</g>
<g style="fill:#000000; fill-opacity:0.0; 
stroke:#000000; stroke-width:59.0551; stroke-opacity:1; 
stroke-linecap:round; stroke-linejoin:round;">
<path d="M4367 33428
L4440 33452
L4464 33476
L4489 33525
L4489 33598
L4464 33647
L4440 33671
L4391 33696
L4196 33696
L4196 33184
L4367 33184
L4416 33208
L4440 33233
L4464 33281
L4464 33330
L4440 33379
L4416 33403
L4367 33428
L4196 33428
" />
</g>
<g style="fill:#000000; fill-opacity:0.0; 
stroke:#000000; stroke-width:39.3701; stroke-opacity:1; 
stroke-linecap:round; stroke-linejoin:round;">
</g>
<g style="fill:#000000; fill-opacity:0.0; 
stroke:#000000; stroke-width:59.0551; stroke-opacity:1; 
stroke-linecap:round; stroke-linejoin:round;">
<path d="M4489 53332
L4464 53356
L4391 53381
L4342 53381
L4269 53356
L4221 53308
L4196 53259
L4172 53161
L4172 53088
L4196 52991
L4221 52942
L4269 52893
L4342 52869
L4391 52869
L4464 52893
L4489 52918
" />
</g>
<g style="fill:#000000; fill-opacity:0.0; 
stroke:#000000; stroke-width:39.3701; stroke-opacity:1; 
stroke-linecap:round; stroke-linejoin:round;">
</g>
<g style="fill:#000000; fill-opacity:0.0; 
stroke:#000000; stroke-width:59.0551; stroke-opacity:1; 
stroke-linecap:round; stroke-linejoin:round;">
<path d="M4196 73066
L4196 72554
L4318 72554
L4391 72578
L4440 72627
L4464 72676
L4489 72773
L4489 72846
L4464 72944
L4440 72993
L4391 73041
L4318 73066
L4196 73066
" />
</g>
<g style="fill:#000000; fill-opacity:0.0; 
stroke:#000000; stroke-width:39.3701; stroke-opacity:1; 
stroke-linecap:round; stroke-linejoin:round;">
</g>
<g style="fill:#000000; fill-opacity:0.0; 
stroke:#000000; stroke-width:59.0551; stroke-opacity:1; 
stroke-linecap:round; stroke-linejoin:round;">
<path d="M112992 23622
L112205 23622
" />
</g>
<g style="fill:#000000; fill-opacity:0.0; 
stroke:#000000; stroke-width:39.3701; stroke-opacity:1; 
stroke-linecap:round; stroke-linejoin:round;">
</g>
<g style="fill:#000000; fill-opacity:0.0; 
stroke:#000000; stroke-width:59.0551; stroke-opacity:1; 
stroke-linecap:round; stroke-linejoin:round;">
<path d="M112992 43307
L112205 43307
" />
</g>
<g style="fill:#000000; fill-opacity:0.0; 
stroke:#000000; stroke-width:39.3701; stroke-opacity:1; 
stroke-linecap:round; stroke-linejoin:round;">
</g>
<g style="fill:#000000; fill-opacity:0.0; 
stroke:#000000; stroke-width:59.0551; stroke-opacity:1; 
stroke-linecap:round; stroke-linejoin:round;">
<path d="M112992 62992
L112205 62992
" />
</g>
<g style="fill:#000000; fill-opacity:0.0; 
stroke:#000000; stroke-width:39.3701; stroke-opacity:1; 
stroke-linecap:round; stroke-linejoin:round;">
</g>
<g style="fill:#000000; fill-opacity:0.0; 
stroke:#000000; stroke-width:59.0551; stroke-opacity:1; 
stroke-linecap:round; stroke-linejoin:round;">
<path d="M112477 13864
L112721 13864
" />
<path d="M112428 14011
L112599 13499
L112769 14011
" />
</g>
<g style="fill:#000000; fill-opacity:0.0; 
stroke:#000000; stroke-width:39.3701; stroke-opacity:1; 
stroke-linecap:round; stroke-linejoin:round;">
</g>
<g style="fill:#000000; fill-opacity:0.0; 
stroke:#000000; stroke-width:59.0551; stroke-opacity:1; 
stroke-linecap:round; stroke-linejoin:round;">
<path d="M112635 33428
L112708 33452
L112733 33476
L112757 33525
L112757 33598
L112733 33647
L112708 33671
L112660 33696
L112465 33696
L112465 33184
L112635 33184
L112684 33208
L112708 33233
L112733 33281
L112733 33330
L112708 33379
L112684 33403
L112635 33428
L112465 33428
" />
</g>
<g style="fill:#000000; fill-opacity:0.0; 
stroke:#000000; stroke-width:39.3701; stroke-opacity:1; 
stroke-linecap:round; stroke-linejoin:round;">
</g>
<g style="fill:#000000; fill-opacity:0.0; 
stroke:#000000; stroke-width:59.0551; stroke-opacity:1; 
stroke-linecap:round; stroke-linejoin:round;">
<path d="M112757 53332
L112733 53356
L112660 53381
L112611 53381
L112538 53356
L112489 53308
L112465 53259
L112440 53161
L112440 53088
L112465 52991
L112489 52942
L112538 52893
L112611 52869
L112660 52869
L112733 52893
L112757 52918
" />
</g>
<g style="fill:#000000; fill-opacity:0.0; 
stroke:#000000; stroke-width:39.3701; stroke-opacity:1; 
stroke-linecap:round; stroke-linejoin:round;">
</g>
<g style="fill:#000000; fill-opacity:0.0; 
stroke:#000000; stroke-width:59.0551; stroke-opacity:1; 
stroke-linecap:round; stroke-linejoin:round;">
<path d="M112465 73066
L112465 72554
L112587 72554
L112660 72578
L112708 72627
L112733 72676
L112757 72773
L112757 72846
L112733 72944
L112708 72993
L112660 73041
L112587 73066
L112465 73066
" />
</g>
<g style="fill:#000000; fill-opacity:0.0; 
stroke:#000000; stroke-width:39.3701; stroke-opacity:1; 
stroke-linecap:round; stroke-linejoin:round;">
</g>
<g style="fill:#000000; fill-opacity:0.0; 
stroke:#000000; stroke-width:59.0551; stroke-opacity:1; 
stroke-linecap:round; stroke-linejoin:round;">
<path d="M78881 76293
L78881 75703
L79022 75703
L79106 75731
L79162 75787
L79190 75843
L79219 75956
L79219 76040
L79190 76153
L79162 76209
L79106 76265
L79022 76293
L78881 76293
" />
<path d="M79725 76293
L79725 75984
L79697 75928
L79640 75899
L79528 75899
L79472 75928
" />
<path d="M79725 76265
L79669 76293
L79528 76293
L79472 76265
L79444 76209
L79444 76153
L79472 76096
L79528 76068
L79669 76068
L79725 76040
" />
<path d="M79922 75899
L80147 75899
" />
<path d="M80006 75703
L80006 76209
L80034 76265
L80090 76293
L80147 76293
" />
<path d="M80568 76265
L80512 76293
L80400 76293
L80343 76265
L80315 76209
L80315 75984
L80343 75928
L80400 75899
L80512 75899
L80568 75928
L80597 75984
L80597 76040
L80315 76096
" />
<path d="M80850 76237
L80878 76265
L80850 76293
L80822 76265
L80850 76237
L80850 76293
" />
<path d="M80850 75928
L80878 75956
L80850 75984
L80822 75956
L80850 75928
L80850 75984
" />
</g>
<g style="fill:#000000; fill-opacity:0.0; 
stroke:#000000; stroke-width:39.3701; stroke-opacity:1; 
stroke-linecap:round; stroke-linejoin:round;">
</g>
<g style="fill:#000000; fill-opacity:0.0; 
stroke:#000000; stroke-width:59.0551; stroke-opacity:1; 
stroke-linecap:round; stroke-linejoin:round;">
<path d="M69685 76577
L112205 76577
" />
</g>
<g style="fill:#000000; fill-opacity:0.0; 
stroke:#000000; stroke-width:39.3701; stroke-opacity:1; 
stroke-linecap:round; stroke-linejoin:round;">
</g>
<g style="fill:#000000; fill-opacity:0.0; 
stroke:#000000; stroke-width:59.0551; stroke-opacity:1; 
stroke-linecap:round; stroke-linejoin:round;">
<path d="M70220 77395
L70220 76805
" />
<path d="M70557 77395
L70304 77058
" />
<path d="M70557 76805
L70220 77142
" />
<path d="M70810 77395
L70810 77002
" />
<path d="M70810 76805
L70782 76833
L70810 76861
L70838 76833
L70810 76805
L70810 76861
" />
<path d="M71429 77339
L71401 77367
L71316 77395
L71260 77395
L71176 77367
L71120 77311
L71091 77255
L71063 77142
L71063 77058
L71091 76946
L71120 76889
L71176 76833
L71260 76805
L71316 76805
L71401 76833
L71429 76861
" />
<path d="M71935 77395
L71935 77086
L71907 77030
L71851 77002
L71738 77002
L71682 77030
" />
<path d="M71935 77367
L71879 77395
L71738 77395
L71682 77367
L71654 77311
L71654 77255
L71682 77199
L71738 77171
L71879 77171
L71935 77142
" />
<path d="M72469 77395
L72469 76805
" />
<path d="M72469 77367
L72413 77395
L72301 77395
L72244 77367
L72216 77339
L72188 77283
L72188 77114
L72216 77058
L72244 77030
L72301 77002
L72413 77002
L72469 77030
" />
<path d="M73201 77086
L73397 77086
" />
<path d="M73482 77395
L73201 77395
L73201 76805
L73482 76805
" />
<path d="M73735 77339
L73763 77367
L73735 77395
L73707 77367
L73735 77339
L73735 77395
" />
<path d="M74016 77395
L74016 76805
L74157 76805
L74241 76833
L74297 76889
L74325 76946
L74354 77058
L74354 77142
L74325 77255
L74297 77311
L74241 77367
L74157 77395
L74016 77395
" />
<path d="M74607 77339
L74635 77367
L74607 77395
L74579 77367
L74607 77339
L74607 77395
" />
<path d="M74860 77227
L75141 77227
" />
<path d="M74804 77395
L75000 76805
L75197 77395
" />
<path d="M75394 77339
L75422 77367
L75394 77395
L75366 77367
L75394 77339
L75394 77395
" />
<path d="M76575 77395
L76575 76805
" />
<path d="M76631 77171
L76800 77395
" />
<path d="M76800 77002
L76575 77227
" />
<path d="M77053 77395
L77053 77002
" />
<path d="M77053 76805
L77025 76833
L77053 76861
L77081 76833
L77053 76805
L77053 76861
" />
<path d="M77588 77367
L77531 77395
L77419 77395
L77363 77367
L77334 77339
L77306 77283
L77306 77114
L77334 77058
L77363 77030
L77419 77002
L77531 77002
L77588 77030
" />
<path d="M78094 77395
L78094 77086
L78066 77030
L78009 77002
L77897 77002
L77841 77030
" />
<path d="M78094 77367
L78037 77395
L77897 77395
L77841 77367
L77813 77311
L77813 77255
L77841 77199
L77897 77171
L78037 77171
L78094 77142
" />
<path d="M78628 77395
L78628 76805
" />
<path d="M78628 77367
L78572 77395
L78459 77395
L78403 77367
L78375 77339
L78347 77283
L78347 77114
L78375 77058
L78403 77030
L78459 77002
L78572 77002
L78628 77030
" />
<path d="M79528 77620
L79500 77592
L79444 77508
L79415 77452
L79387 77367
L79359 77227
L79359 77114
L79387 76974
L79415 76889
L79444 76833
L79500 76749
L79528 76721
" />
<path d="M80006 77395
L80006 77086
L79978 77030
L79922 77002
L79809 77002
L79753 77030
" />
<path d="M80006 77367
L79950 77395
L79809 77395
L79753 77367
L79725 77311
L79725 77255
L79753 77199
L79809 77171
L79950 77171
L80006 77142
" />
<path d="M80203 77002
L80428 77002
" />
<path d="M80287 77395
L80287 76889
L80315 76833
L80372 76805
L80428 76805
" />
<path d="M80540 77002
L80765 77002
" />
<path d="M80625 76805
L80625 77311
L80653 77367
L80709 77395
L80765 77395
" />
<path d="M81187 77367
L81131 77395
L81018 77395
L80962 77367
L80934 77311
L80934 77086
L80962 77030
L81018 77002
L81131 77002
L81187 77030
L81215 77086
L81215 77142
L80934 77199
" />
<path d="M81468 77395
L81468 77002
" />
<path d="M81468 77114
L81496 77058
L81525 77030
L81581 77002
L81637 77002
" />
<path d="M82256 76861
L82284 76833
L82340 76805
L82481 76805
L82537 76833
L82565 76861
L82593 76917
L82593 76974
L82565 77058
L82228 77395
L82593 77395
" />
<path d="M82959 76805
L83015 76805
L83071 76833
L83099 76861
L83127 76917
L83156 77030
L83156 77171
L83127 77283
L83099 77339
L83071 77367
L83015 77395
L82959 77395
L82903 77367
L82874 77339
L82846 77283
L82818 77171
L82818 77030
L82846 76917
L82874 76861
L82903 76833
L82959 76805
" />
<path d="M83718 77395
L83381 77395
" />
<path d="M83549 77395
L83549 76805
L83493 76889
L83437 76946
L83381 76974
" />
<path d="M84252 76805
L83971 76805
L83943 77086
L83971 77058
L84027 77030
L84168 77030
L84224 77058
L84252 77086
L84280 77142
L84280 77283
L84252 77339
L84224 77367
L84168 77395
L84027 77395
L83971 77367
L83943 77339
" />
<path d="M84534 77171
L84983 77171
" />
<path d="M85265 77395
L85265 77002
" />
<path d="M85265 77058
L85293 77030
L85349 77002
L85433 77002
L85490 77030
L85518 77086
L85518 77395
" />
<path d="M85518 77086
L85546 77030
L85602 77002
L85687 77002
L85743 77030
L85771 77086
L85771 77395
" />
<path d="M86305 77395
L86305 77086
L86277 77030
L86221 77002
L86108 77002
L86052 77030
" />
<path d="M86305 77367
L86249 77395
L86108 77395
L86052 77367
L86024 77311
L86024 77255
L86052 77199
L86108 77171
L86249 77171
L86305 77142
" />
<path d="M86586 77395
L86586 77002
" />
<path d="M86586 77114
L86615 77058
L86643 77030
L86699 77002
L86755 77002
" />
<path d="M86952 77171
L87402 77171
" />
<path d="M87796 76805
L87852 76805
L87908 76833
L87936 76861
L87964 76917
L87992 77030
L87992 77171
L87964 77283
L87936 77339
L87908 77367
L87852 77395
L87796 77395
L87739 77367
L87711 77339
L87683 77283
L87655 77171
L87655 77030
L87683 76917
L87711 76861
L87739 76833
L87796 76805
" />
<path d="M88499 77002
L88499 77395
" />
<path d="M88358 76777
L88217 77199
L88583 77199
" />
<path d="M89455 77086
L89539 77114
L89567 77142
L89595 77199
L89595 77283
L89567 77339
L89539 77367
L89483 77395
L89258 77395
L89258 76805
L89455 76805
L89511 76833
L89539 76861
L89567 76917
L89567 76974
L89539 77030
L89511 77058
L89455 77086
L89258 77086
" />
<path d="M89792 76805
L90186 76805
L89792 77395
L90186 77395
" />
<path d="M90748 77395
L90552 77114
" />
<path d="M90411 77395
L90411 76805
L90636 76805
L90692 76833
L90720 76861
L90748 76917
L90748 77002
L90720 77058
L90692 77086
L90636 77114
L90411 77114
" />
<path d="M91705 77002
L91705 77395
" />
<path d="M91451 77002
L91451 77311
L91480 77367
L91536 77395
L91620 77395
L91676 77367
L91705 77339
" />
<path d="M91986 77002
L91986 77395
" />
<path d="M91986 77058
L92014 77030
L92070 77002
L92154 77002
L92211 77030
L92239 77086
L92239 77395
" />
<path d="M92520 77395
L92520 76805
" />
<path d="M92576 77171
L92745 77395
" />
<path d="M92745 77002
L92520 77227
" />
<path d="M92998 77002
L92998 77395
" />
<path d="M92998 77058
L93026 77030
L93082 77002
L93167 77002
L93223 77030
L93251 77086
L93251 77395
" />
<path d="M93617 77395
L93561 77367
L93532 77339
L93504 77283
L93504 77114
L93532 77058
L93561 77030
L93617 77002
L93701 77002
L93757 77030
L93786 77058
L93814 77114
L93814 77283
L93786 77339
L93757 77367
L93701 77395
L93617 77395
" />
<path d="M94010 77002
L94123 77395
L94235 77114
L94348 77395
L94460 77002
" />
<path d="M94685 77002
L94685 77395
" />
<path d="M94685 77058
L94714 77030
L94770 77002
L94854 77002
L94910 77030
L94938 77086
L94938 77395
" />
<path d="M95163 77620
L95192 77592
L95248 77508
L95276 77452
L95304 77367
L95332 77227
L95332 77114
L95304 76974
L95276 76889
L95248 76833
L95192 76749
L95163 76721
" />
<path d="M95613 77171
L96063 77171
" />
<path d="M96345 77002
L96345 77592
" />
<path d="M96345 77030
L96401 77002
L96513 77002
L96570 77030
L96598 77058
L96626 77114
L96626 77283
L96598 77339
L96570 77367
L96513 77395
L96401 77395
L96345 77367
" />
<path d="M96879 77395
L96879 77002
" />
<path d="M96879 77114
L96907 77058
L96935 77030
L96991 77002
L97048 77002
" />
<path d="M97329 77395
L97273 77367
L97244 77339
L97216 77283
L97216 77114
L97244 77058
L97273 77030
L97329 77002
L97413 77002
L97469 77030
L97498 77058
L97526 77114
L97526 77283
L97498 77339
L97469 77367
L97413 77395
L97329 77395
" />
<path d="M98032 77395
L98032 76805
" />
<path d="M98032 77367
L97976 77395
L97863 77395
L97807 77367
L97779 77339
L97751 77283
L97751 77114
L97779 77058
L97807 77030
L97863 77002
L97976 77002
L98032 77030
" />
<path d="M98566 77002
L98566 77395
" />
<path d="M98313 77002
L98313 77311
L98341 77367
L98397 77395
L98482 77395
L98538 77367
L98566 77339
" />
<path d="M99100 77367
L99044 77395
L98932 77395
L98876 77367
L98847 77339
L98819 77283
L98819 77114
L98847 77058
L98876 77030
L98932 77002
L99044 77002
L99100 77030
" />
<path d="M99269 77002
L99494 77002
" />
<path d="M99354 76805
L99354 77311
L99382 77367
L99438 77395
L99494 77395
" />
</g>
<g style="fill:#000000; fill-opacity:0.0; 
stroke:#000000; stroke-width:39.3701; stroke-opacity:1; 
stroke-linecap:round; stroke-linejoin:round;">
</g>
<g style="fill:#000000; fill-opacity:0.0; 
stroke:#000000; stroke-width:59.0551; stroke-opacity:1; 
stroke-linecap:round; stroke-linejoin:round;">
<path d="M69685 75396
L112205 75396
" />
</g>
<g style="fill:#000000; fill-opacity:0.0; 
stroke:#000000; stroke-width:39.3701; stroke-opacity:1; 
stroke-linecap:round; stroke-linejoin:round;">
</g>
<g style="fill:#000000; fill-opacity:0.0; 
stroke:#000000; stroke-width:118.11; stroke-opacity:1; 
stroke-linecap:round; stroke-linejoin:round;">
<path d="M104022 76293
L103825 76012
" />
<path d="M103684 76293
L103684 75703
L103909 75703
L103965 75731
L103994 75759
L104022 75815
L104022 75899
L103994 75956
L103965 75984
L103909 76012
L103684 76012
" />
<path d="M104500 76265
L104444 76293
L104331 76293
L104275 76265
L104247 76209
L104247 75984
L104275 75928
L104331 75899
L104444 75899
L104500 75928
L104528 75984
L104528 76040
L104247 76096
" />
<path d="M104725 75899
L104865 76293
L105006 75899
" />
<path d="M105231 76237
L105259 76265
L105231 76293
L105203 76265
L105231 76237
L105231 76293
" />
<path d="M105231 75928
L105259 75956
L105231 75984
L105203 75956
L105231 75928
L105231 75984
" />
</g>
<g style="fill:#000000; fill-opacity:0.0; 
stroke:#000000; stroke-width:39.3701; stroke-opacity:1; 
stroke-linecap:round; stroke-linejoin:round;">
</g>
<g style="fill:#000000; fill-opacity:0.0; 
stroke:#000000; stroke-width:59.0551; stroke-opacity:1; 
stroke-linecap:round; stroke-linejoin:round;">
<path d="M70192 76265
L70276 76293
L70417 76293
L70473 76265
L70501 76237
L70529 76181
L70529 76124
L70501 76068
L70473 76040
L70417 76012
L70304 75984
L70248 75956
L70220 75928
L70192 75871
L70192 75815
L70220 75759
L70248 75731
L70304 75703
L70445 75703
L70529 75731
" />
<path d="M70782 76293
L70782 75899
" />
<path d="M70782 75703
L70754 75731
L70782 75759
L70810 75731
L70782 75703
L70782 75759
" />
<path d="M71007 75899
L71316 75899
L71007 76293
L71316 76293
" />
<path d="M71766 76265
L71710 76293
L71598 76293
L71541 76265
L71513 76209
L71513 75984
L71541 75928
L71598 75899
L71710 75899
L71766 75928
L71795 75984
L71795 76040
L71513 76096
" />
<path d="M72048 76237
L72076 76265
L72048 76293
L72019 76265
L72048 76237
L72048 76293
" />
<path d="M72048 75928
L72076 75956
L72048 75984
L72019 75956
L72048 75928
L72048 75984
" />
<path d="M72751 76124
L73032 76124
" />
<path d="M72694 76293
L72891 75703
L73088 76293
" />
<path d="M73538 75899
L73538 76293
" />
<path d="M73397 75674
L73257 76096
L73622 76096
" />
</g>
<g style="fill:#000000; fill-opacity:0.0; 
stroke:#000000; stroke-width:39.3701; stroke-opacity:1; 
stroke-linecap:round; stroke-linejoin:round;">
</g>
<g style="fill:#000000; fill-opacity:0.0; 
stroke:#000000; stroke-width:59.0551; stroke-opacity:1; 
stroke-linecap:round; stroke-linejoin:round;">
<path d="M103684 77395
L103684 76805
" />
<path d="M104219 77395
L104219 76805
" />
<path d="M104219 77367
L104162 77395
L104050 77395
L103994 77367
L103965 77339
L103937 77283
L103937 77114
L103965 77058
L103994 77030
L104050 77002
L104162 77002
L104219 77030
" />
<path d="M104500 77339
L104528 77367
L104500 77395
L104472 77367
L104500 77339
L104500 77395
" />
<path d="M104500 77030
L104528 77058
L104500 77086
L104472 77058
L104500 77030
L104500 77086
" />
<path d="M105540 77395
L105203 77395
" />
<path d="M105372 77395
L105372 76805
L105315 76889
L105259 76946
L105203 76974
" />
<path d="M106215 76777
L105709 77536
" />
<path d="M106721 77395
L106384 77395
" />
<path d="M106553 77395
L106553 76805
L106496 76889
L106440 76946
L106384 76974
" />
</g>
<g style="fill:#000000; fill-opacity:0.0; 
stroke:#000000; stroke-width:39.3701; stroke-opacity:1; 
stroke-linecap:round; stroke-linejoin:round;">
</g>
<g style="fill:#000000; fill-opacity:0.0; 
stroke:#000000; stroke-width:59.0551; stroke-opacity:1; 
stroke-linecap:round; stroke-linejoin:round;">
<path d="M69685 73821
L112205 73821
" />
</g>
<g style="fill:#000000; fill-opacity:0.0; 
stroke:#000000; stroke-width:39.3701; stroke-opacity:1; 
stroke-linecap:round; stroke-linejoin:round;">
</g>
<g style="fill:#000000; fill-opacity:0.0; 
stroke:#000000; stroke-width:157.48; stroke-opacity:1; 
stroke-linecap:round; stroke-linejoin:round;">
<path d="M70257 74099
L70707 74099
" />
<path d="M70384 74886
L70482 74099
" />
<path d="M70871 74886
L70937 74361
" />
<path d="M70970 74099
L70927 74136
L70960 74174
L71002 74136
L70970 74099
L70960 74174
" />
<path d="M71199 74361
L71499 74361
" />
<path d="M71345 74099
L71260 74774
L71288 74849
L71359 74886
L71434 74886
" />
<path d="M71809 74886
L71738 74849
L71710 74774
L71795 74099
" />
<path d="M72413 74849
L72334 74886
L72184 74886
L72113 74849
L72085 74774
L72123 74474
L72169 74399
L72249 74361
L72399 74361
L72469 74399
L72498 74474
L72488 74549
L72104 74624
" />
<path d="M72793 74811
L72826 74849
L72783 74886
L72751 74849
L72793 74811
L72783 74886
" />
<path d="M72844 74399
L72877 74436
L72835 74474
L72802 74436
L72844 74399
L72835 74474
" />
</g>
<g style="fill:#000000; fill-opacity:0.0; 
stroke:#000000; stroke-width:39.3701; stroke-opacity:1; 
stroke-linecap:round; stroke-linejoin:round;">
</g>
<g style="fill:#000000; fill-opacity:0.0; 
stroke:#000000; stroke-width:59.0551; stroke-opacity:1; 
stroke-linecap:round; stroke-linejoin:round;">
<path d="M70417 73070
L70220 73070
" />
<path d="M70220 73380
L70220 72789
L70501 72789
" />
<path d="M70726 73380
L70726 72986
" />
<path d="M70726 72789
L70698 72817
L70726 72845
L70754 72817
L70726 72789
L70726 72845
" />
<path d="M71091 73380
L71035 73352
L71007 73295
L71007 72789
" />
<path d="M71541 73352
L71485 73380
L71373 73380
L71316 73352
L71288 73295
L71288 73070
L71316 73014
L71373 72986
L71485 72986
L71541 73014
L71570 73070
L71570 73127
L71288 73183
" />
<path d="M71823 73323
L71851 73352
L71823 73380
L71795 73352
L71823 73323
L71823 73380
" />
<path d="M71823 73014
L71851 73042
L71823 73070
L71795 73042
L71823 73014
L71823 73070
" />
<path d="M72554 73070
L72751 73070
" />
<path d="M72835 73380
L72554 73380
L72554 72789
L72835 72789
" />
<path d="M73060 73352
L73144 73380
L73285 73380
L73341 73352
L73369 73323
L73397 73267
L73397 73211
L73369 73155
L73341 73127
L73285 73099
L73172 73070
L73116 73042
L73088 73014
L73060 72958
L73060 72902
L73088 72845
L73116 72817
L73172 72789
L73313 72789
L73397 72817
" />
<path d="M73651 73380
L73651 72789
L73876 72789
L73932 72817
L73960 72845
L73988 72902
L73988 72986
L73960 73042
L73932 73070
L73876 73099
L73651 73099
" />
<path d="M74241 73155
L74691 73155
" />
<path d="M75169 73070
L75253 73099
L75282 73127
L75310 73183
L75310 73267
L75282 73323
L75253 73352
L75197 73380
L74972 73380
L74972 72789
L75169 72789
L75225 72817
L75253 72845
L75282 72902
L75282 72958
L75253 73014
L75225 73042
L75169 73070
L74972 73070
" />
<path d="M75563 73380
L75563 72986
" />
<path d="M75563 73099
L75591 73042
L75619 73014
L75675 72986
L75732 72986
" />
<path d="M76153 73352
L76097 73380
L75985 73380
L75928 73352
L75900 73295
L75900 73070
L75928 73014
L75985 72986
L76097 72986
L76153 73014
L76181 73070
L76181 73127
L75900 73183
" />
<path d="M76688 73380
L76688 73070
L76660 73014
L76603 72986
L76491 72986
L76435 73014
" />
<path d="M76688 73352
L76631 73380
L76491 73380
L76435 73352
L76406 73295
L76406 73239
L76435 73183
L76491 73155
L76631 73155
L76688 73127
" />
<path d="M76969 73380
L76969 72789
" />
<path d="M77025 73155
L77194 73380
" />
<path d="M77194 72986
L76969 73211
" />
<path d="M77531 73380
L77475 73352
L77447 73323
L77419 73267
L77419 73099
L77447 73042
L77475 73014
L77531 72986
L77616 72986
L77672 73014
L77700 73042
L77728 73099
L77728 73267
L77700 73323
L77672 73352
L77616 73380
L77531 73380
" />
<path d="M78234 72986
L78234 73380
" />
<path d="M77981 72986
L77981 73295
L78009 73352
L78066 73380
L78150 73380
L78206 73352
L78234 73323
" />
<path d="M78431 72986
L78656 72986
" />
<path d="M78516 72789
L78516 73295
L78544 73352
L78600 73380
L78656 73380
" />
<path d="M78853 73323
L78881 73352
L78853 73380
L78825 73352
L78853 73323
L78853 73380
" />
<path d="M79134 72986
L79134 73577
" />
<path d="M79134 73014
L79190 72986
L79303 72986
L79359 73014
L79387 73042
L79415 73099
L79415 73267
L79387 73323
L79359 73352
L79303 73380
L79190 73380
L79134 73352
" />
<path d="M79669 73380
L79669 72986
" />
<path d="M79669 73042
L79697 73014
L79753 72986
L79837 72986
L79894 73014
L79922 73070
L79922 73380
" />
<path d="M79922 73070
L79950 73014
L80006 72986
L80090 72986
L80147 73014
L80175 73070
L80175 73380
" />
<path d="M80428 73352
L80484 73380
L80597 73380
L80653 73352
L80681 73295
L80681 73267
L80653 73211
L80597 73183
L80512 73183
L80456 73155
L80428 73099
L80428 73070
L80456 73014
L80512 72986
L80597 72986
L80653 73014
" />
<path d="M80934 73323
L80962 73352
L80934 73380
L80906 73352
L80934 73323
L80934 73380
" />
<path d="M81215 73380
L81215 72789
" />
<path d="M81271 73155
L81440 73380
" />
<path d="M81440 72986
L81215 73211
" />
<path d="M81693 73380
L81693 72986
" />
<path d="M81693 72789
L81665 72817
L81693 72845
L81721 72817
L81693 72789
L81693 72845
" />
<path d="M82228 73352
L82171 73380
L82059 73380
L82003 73352
L81974 73323
L81946 73267
L81946 73099
L81974 73042
L82003 73014
L82059 72986
L82171 72986
L82228 73014
" />
<path d="M82734 73380
L82734 73070
L82706 73014
L82649 72986
L82537 72986
L82481 73014
" />
<path d="M82734 73352
L82678 73380
L82537 73380
L82481 73352
L82453 73295
L82453 73239
L82481 73183
L82537 73155
L82678 73155
L82734 73127
" />
<path d="M83268 73380
L83268 72789
" />
<path d="M83268 73352
L83212 73380
L83099 73380
L83043 73352
L83015 73323
L82987 73267
L82987 73099
L83015 73042
L83043 73014
L83099 72986
L83212 72986
L83268 73014
" />
<path d="M83409 73436
L83859 73436
" />
<path d="M83999 72986
L83999 73577
" />
<path d="M83999 73014
L84055 72986
L84168 72986
L84224 73014
L84252 73042
L84280 73099
L84280 73267
L84252 73323
L84224 73352
L84168 73380
L84055 73380
L83999 73352
" />
<path d="M84787 73352
L84730 73380
L84618 73380
L84562 73352
L84534 73323
L84505 73267
L84505 73099
L84534 73042
L84562 73014
L84618 72986
L84730 72986
L84787 73014
" />
<path d="M85040 73380
L85040 72789
" />
<path d="M85040 73014
L85096 72986
L85208 72986
L85265 73014
L85293 73042
L85321 73099
L85321 73267
L85293 73323
L85265 73352
L85208 73380
L85096 73380
L85040 73352
" />
</g>
<g style="fill:#000000; fill-opacity:0.0; 
stroke:#000000; stroke-width:39.3701; stroke-opacity:1; 
stroke-linecap:round; stroke-linejoin:round;">
</g>
<g style="fill:#000000; fill-opacity:0.0; 
stroke:#000000; stroke-width:59.0551; stroke-opacity:1; 
stroke-linecap:round; stroke-linejoin:round;">
<path d="M69685 71459
L112205 71459
" />
</g>
<g style="fill:#000000; fill-opacity:0.0; 
stroke:#000000; stroke-width:39.3701; stroke-opacity:1; 
stroke-linecap:round; stroke-linejoin:round;">
</g>
<g style="fill:#000000; fill-opacity:0.0; 
stroke:#000000; stroke-width:59.0551; stroke-opacity:1; 
stroke-linecap:round; stroke-linejoin:round;">
<path d="M70192 72289
L70276 72317
L70417 72317
L70473 72289
L70501 72260
L70529 72204
L70529 72148
L70501 72092
L70473 72064
L70417 72036
L70304 72007
L70248 71979
L70220 71951
L70192 71895
L70192 71839
L70220 71782
L70248 71754
L70304 71726
L70445 71726
L70529 71754
" />
<path d="M70782 72317
L70782 71726
" />
<path d="M71035 72317
L71035 72007
L71007 71951
L70951 71923
L70867 71923
L70810 71951
L70782 71979
" />
<path d="M71541 72289
L71485 72317
L71373 72317
L71316 72289
L71288 72232
L71288 72007
L71316 71951
L71373 71923
L71485 71923
L71541 71951
L71570 72007
L71570 72064
L71288 72120
" />
<path d="M72048 72289
L71991 72317
L71879 72317
L71823 72289
L71795 72232
L71795 72007
L71823 71951
L71879 71923
L71991 71923
L72048 71951
L72076 72007
L72076 72064
L71795 72120
" />
<path d="M72244 71923
L72469 71923
" />
<path d="M72329 71726
L72329 72232
L72357 72289
L72413 72317
L72469 72317
" />
<path d="M72666 72260
L72694 72289
L72666 72317
L72638 72289
L72666 72260
L72666 72317
" />
<path d="M72666 71951
L72694 71979
L72666 72007
L72638 71979
L72666 71951
L72666 72007
" />
</g>
<g style="fill:#000000; fill-opacity:0.0; 
stroke:#000000; stroke-width:39.3701; stroke-opacity:1; 
stroke-linecap:round; stroke-linejoin:round;">
</g>
<g style="fill:#000000; fill-opacity:0.0; 
stroke:#000000; stroke-width:59.0551; stroke-opacity:1; 
stroke-linecap:round; stroke-linejoin:round;">
<path d="M77559 75396
L77559 76577
" />
</g>
<g style="fill:#000000; fill-opacity:0.0; 
stroke:#000000; stroke-width:39.3701; stroke-opacity:1; 
stroke-linecap:round; stroke-linejoin:round;">
</g>
<g style="fill:#000000; fill-opacity:0.0; 
stroke:#000000; stroke-width:59.0551; stroke-opacity:1; 
stroke-linecap:round; stroke-linejoin:round;">
<path d="M102756 75396
L102756 77955
" />
</g>
<g style="fill:#C2C200; fill-opacity:0.0; 
stroke:#C2C200; stroke-width:39.3701; stroke-opacity:1; 
stroke-linecap:round; stroke-linejoin:round;">
<path d="M60000 36500
L47500 36500
" />
<path d="M60000 47000
L60000 36500
" />
<path d="M47500 47000
L60000 47000
" />
<path d="M47500 36500
L47500 47000
" />
</g>
<g style="fill:#840000; fill-opacity:0.0; 
stroke:#840000; stroke-width:39.3701; stroke-opacity:1; 
stroke-linecap:round; stroke-linejoin:round;">
</g>
<g style="fill:#840000; fill-opacity:1.0; 
stroke:#840000; stroke-width:39.3701; stroke-opacity:1; 
stroke-linecap:round; stroke-linejoin:round;">
<circle cx="58890" cy="45670" r="610.236" /> 
<circle cx="58890" cy="39360" r="610.236" /> 
<polyline style="fill-rule:evenodd;"
points="50332,46122
50332,45177
50942,45177
50942,46122
50332,46122
" /> 
<polyline style="fill-rule:evenodd;"
points="51120,46122
51120,45177
51730,45177
51730,46122
51120,46122
" /> 
<polyline style="fill-rule:evenodd;"
points="51907,46122
51907,45177
52517,45177
52517,46122
51907,46122
" /> 
<polyline style="fill-rule:evenodd;"
points="52694,46122
52694,45177
53305,45177
53305,46122
52694,46122
" /> 
<polyline style="fill-rule:evenodd;"
points="53482,46122
53482,45177
54092,45177
54092,46122
53482,46122
" /> 
<polyline style="fill-rule:evenodd;"
points="54269,46122
54269,45177
54879,45177
54879,46122
54269,46122
" /> 
<polyline style="fill-rule:evenodd;"
points="55057,46122
55057,45177
55667,45177
55667,46122
55057,46122
" /> 
<polyline style="fill-rule:evenodd;"
points="55844,46122
55844,45177
56454,45177
56454,46122
55844,46122
" /> 
<polyline style="fill-rule:evenodd;"
points="55844,39822
55844,38877
56454,38877
56454,39822
55844,39822
" /> 
<polyline style="fill-rule:evenodd;"
points="55057,39822
55057,38877
55667,38877
55667,39822
55057,39822
" /> 
<polyline style="fill-rule:evenodd;"
points="53482,39822
53482,38877
54092,38877
54092,39822
53482,39822
" /> 
<polyline style="fill-rule:evenodd;"
points="52694,39822
52694,38877
53305,38877
53305,39822
52694,39822
" /> 
<polyline style="fill-rule:evenodd;"
points="51907,39822
51907,38877
52517,38877
52517,39822
51907,39822
" /> 
<polyline style="fill-rule:evenodd;"
points="51120,39822
51120,38877
51730,38877
51730,39822
51120,39822
" /> 
<polyline style="fill-rule:evenodd;"
points="50332,39822
50332,38877
50942,38877
50942,39822
50332,39822
" /> 
<polyline style="fill-rule:evenodd;"
points="54269,39822
54269,38877
54879,38877
54879,39822
54269,39822
" /> 
<polyline style="fill-rule:evenodd;"
points="52320,43320
51679,43320
51679,42679
52320,42679
52320,43320
" /> 
</g>
<g style="fill:#840000; fill-opacity:1.0; 
stroke:#840000; stroke-width:680; stroke-opacity:1; 
stroke-linecap:round; stroke-linejoin:round;">
</g>
<g style="fill:#840000; fill-opacity:0.0; 
stroke:#840000; stroke-width:680; stroke-opacity:1; 
stroke-linecap:round; stroke-linejoin:round;">
<path d="M52000 42000
L52000 42000
" />
<path d="M53000 43000
L53000 43000
" />
<path d="M53000 42000
L53000 42000
" />
<path d="M54000 43000
L54000 43000
" />
<path d="M54000 42000
L54000 42000
" />
<path d="M55000 43000
L55000 43000
" />
<path d="M55000 42000
L55000 42000
" />
</g>
<g style="fill:#840000; fill-opacity:0.0; 
stroke:#840000; stroke-width:196.85; stroke-opacity:1; 
stroke-linecap:round; stroke-linejoin:round;">
<path d="M50637 45649
L50637 44612
" />
<path d="M54000 43500
L54000 43000
" />
<path d="M53500 44000
L54000 43500
" />
<path d="M51250 44000
L53500 44000
" />
<path d="M50637 44612
L51250 44000
" />
</g>
<g style="fill:#840000; fill-opacity:0.0; 
stroke:#840000; stroke-width:157.48; stroke-opacity:1; 
stroke-linecap:round; stroke-linejoin:round;">
<path d="M52212 45649
L52212 44787
" />
<path d="M53500 42500
L53000 43000
" />
<path d="M54250 42500
L53500 42500
" />
<path d="M54500 42750
L54250 42500
" />
<path d="M54500 44000
L54500 42750
" />
<path d="M54000 44500
L54500 44000
" />
<path d="M52500 44500
L54000 44500
" />
<path d="M52212 44787
L52500 44500
" />
</g>
<g style="fill:#840000; fill-opacity:0.0; 
stroke:#840000; stroke-width:196.85; stroke-opacity:1; 
stroke-linecap:round; stroke-linejoin:round;">
<path d="M56149 45649
L56149 44149
" />
<path d="M56149 44149
L55000 43000
" />
<path d="M52000 42000
L52000 41000
" />
<path d="M56149 40100
L56149 39350
" />
<path d="M56000 40250
L56149 40100
" />
<path d="M52750 40250
L56000 40250
" />
<path d="M52000 41000
L52750 40250
" />
<path d="M54000 42000
L54750 41250
" />
<path d="M53750 38250
L53787 39350
" />
<path d="M54228 37729
L53750 38250
" />
<path d="M57000 37750
L54228 37729
" />
<path d="M57500 38250
L57000 37750
" />
<path d="M57500 41000
L57500 38250
" />
<path d="M57250 41250
L57500 41000
" />
<path d="M54750 41250
L57250 41250
" />
<path d="M55000 42000
L57250 42000
" />
<path d="M51425 37750
L51425 39350
" />
<path d="M52000 37250
L51425 37750
" />
<path d="M57249 37251
L52000 37250
" />
<path d="M58000 38000
L57249 37251
" />
<path d="M58000 41250
L58000 38000
" />
<path d="M57250 42000
L58000 41250
" />
<path d="M50637 39350
L50637 42137
" />
<path d="M51500 43000
L52000 43000
" />
<path d="M50637 42137
L51500 43000
" />
<path d="M53000 42000
L53000 41500
" />
<path d="M54574 38425
L54574 39350
" />
<path d="M54750 38250
L54574 38425
" />
<path d="M56750 38250
L54750 38250
" />
<path d="M57000 38500
L56750 38250
" />
<path d="M57000 40250
L57000 38500
" />
<path d="M56500 40750
L57000 40250
" />
<path d="M53750 40750
L56500 40750
" />
<path d="M53000 41500
L53750 40750
" />
</g>
<g style="fill:#FFFFFF; fill-opacity:0.0; 
stroke:#FFFFFF; stroke-width:39.3701; stroke-opacity:1; 
stroke-linecap:round; stroke-linejoin:round;">
</g>
<g style="fill:#FFFFFF; fill-opacity:1.0; 
stroke:#FFFFFF; stroke-width:39.3701; stroke-opacity:1; 
stroke-linecap:round; stroke-linejoin:round;">
<circle cx="58890" cy="45670" r="570.866" /> 
<circle cx="58890" cy="39360" r="570.866" /> 
<circle cx="52000" cy="43000" r="180.315" /> 
<circle cx="52000" cy="42000" r="180.315" /> 
<circle cx="53000" cy="43000" r="180.315" /> 
<circle cx="53000" cy="42000" r="180.315" /> 
<circle cx="54000" cy="43000" r="180.315" /> 
<circle cx="54000" cy="42000" r="180.315" /> 
<circle cx="55000" cy="43000" r="180.315" /> 
<circle cx="55000" cy="42000" r="180.315" /> 
</g> 
</svg>
